#!OML:ASF E:/inclinewalkrobotboard/Project1/Captureday1/Session1/subject1.ASF
:FULLY-SPECIFIED
:DEGREES
126
root 0 0 0 -1.426596818058758 -1.3741633135313651 -4.008508056082789
lowerback 19.73102523407551 3.019954823370634 0.1021076454664207
upperback 2.19103900915027 4.078324719299638 -0.5099023966685661
thorax -8.680699777735216 1.965985961475555 -1.265288160478456
lowerneck -8.570891866154152 -5.987842148566964 -1.4851962026700065
upperneck -0.8587344723203039 -8.652896500641722 5.861150467462205
head 1.4086467076099725 -3.9600949867680946 1.5409955992824393
rclavicle -9.212854857631125E-16 4.4044708356092475E-16
rhumerus 36.465769205526335 -4.406295453732961 -28.877008308971796
rradius 149.89590352828634
rwrist -25.010319384941127
rhand -19.116298711472588 -31.32117850654417
rfingers 7.125019999999953
rthumb 7.212368695429785 -61.11818893158401
lclavicle -2.009778439233163E-15 7.596462729514003E-16
lhumerus -47.21628616356377 -6.385870950656824 80.09668921363476
lradius 62.095860980062795
lwrist 10.800992987566417
lhand -14.454717304347053 -20.08222952227863
lfingers 7.125019999999871
lthumb 11.624931269649023 9.607268295345438
rfemur -3.6178659773759536 8.904359815491217 35.53009361417266
rtibia 27.43715888551972
rfoot -20.742568133554702 -7.985708979021453
rtoes 7.144187052245714
lfemur -23.481045464525195 3.2221028576514397 -13.976883863379461
ltibia 61.26692286666085
lfoot -2.2504932524586536 -6.696294084743742
ltoes -3.683751123668678
127
root 0 0 0 -1.4620957086956503 -1.4687054380791733 -4.0033395265501905
lowerback 19.712289590392878 3.0360010855548336 0.14871687507363462
upperback 2.2328443534871765 4.101366013989517 -0.5260286760245436
thorax -8.629136414223133 1.9758195175582949 -1.310378461004565
lowerneck -8.610129581909401 -5.968392780283696 -1.5033312932984975
upperneck -0.9815194491935717 -8.621138387018377 5.871569347896667
head 1.3668445458738931 -3.9470543411209427 1.5499916460555951
rclavicle -9.849754916105336E-16 6.243298843354365E-16
rhumerus 36.62141140881242 -3.888919052683491 -28.96256702023738
rradius 150.550932573342
rwrist -24.933483122652255
rhand -19.241116149273033 -31.15198560034825
rfingers 7.125019999999952
rthumb 7.092667510343324 -60.95849632541949
lclavicle -1.834386849287812E-15 8.487507957126908E-16
lhumerus -47.34659725939673 -6.2485983950250485 79.9022168253828
lradius 62.04068649205345
lwrist 10.804606787450748
lhand -14.508332639835249 -19.974656873958608
lfingers 7.125019999999869
lthumb 11.57497784098718 9.736081609082264
rfemur -0.5966597132821003 8.991380263576373 35.76421916557379
rtibia 26.457469617190362
rfoot -21.647009149254274 -7.8969326338784205
rtoes 6.123240003932516
lfemur -25.152555186238985 2.689824364512463 -14.716292103242745
ltibia 56.1621452241363
lfoot -2.8115405167201253 -5.585040718014592
ltoes 0.3729940062372705
128
root 0 0 0 -1.4742757645178348 -1.5140348031968274 -3.996317619350386
lowerback 19.77800214122216 3.0337031807758104 0.15249346238275063
upperback 2.253402757143714 4.098294966231007 -0.5291514056290287
thorax -8.646054747446021 1.9735208680629972 -1.3163329282061955
lowerneck -8.613595584252751 -5.956194230422692 -1.4865961103403993
upperneck -1.1015033624658876 -8.597316902844407 5.837785161386716
head 1.3301474789960972 -3.938828591259959 1.5389560180650763
rclavicle -8.621315589170235E-16 8.143482690737633E-16
rhumerus 36.59153305193742 -3.951411776409138 -29.071482575240672
rradius 150.62411133101745
rwrist -24.712378531435157
rhand -19.350502773205122 -31.098327252959287
rfingers 7.125019999999954
rthumb 6.9882605312617505 -60.91099352250582
lclavicle -1.6919199891837549E-15 9.84480607463115E-16
lhumerus -47.378401646591094 -6.195666358885743 79.82324579842107
lradius 62.012799581192
lwrist 10.81087917938119
lhand -14.538938574673223 -19.919535748356978
lfingers 7.125019999999868
lthumb 11.54601898821814 9.802329051210425
rfemur -0.10547530764578816 8.941802438908857 35.7241541117766
rtibia 26.637902283314084
rfoot -21.668000103671176 -7.897050808433133
rtoes 5.648300824600872
lfemur -26.208021597606514 2.1945512751064613 -15.559868613529968
ltibia 51.70138081837213
lfoot -3.1047582720042612 -4.845453642350134
ltoes 4.108025197391136
129
root 0 0 0 -1.4807489913265464 -1.5474780297137012 -3.987509973752801
lowerback 19.874196528929392 3.0252243821380764 0.14215681771487965
upperback 2.2704283849146742 4.08632533173905 -0.5272331411020905
thorax -8.683302207014524 1.9671182554751057 -1.3085348655727136
lowerneck -8.60472523961758 -5.945315662138107 -1.4582355354174046
upperneck -1.210849575128746 -8.574154299766125 5.787411514151038
head 1.2984073464019108 -3.931330804880906 1.5206241366472955
rclavicle -7.209125507213413E-16 1.0046858163903606E-15
rhumerus 36.453904815709556 -4.251164187721025 -29.268396259235864
rradius 150.43538841375994
rwrist -24.290024061157187
rhand -19.489311123771774 -31.039693451524816
rfingers 7.125019999999956
rthumb 6.8559950466328825 -60.859610601825864
lclavicle -1.5851822031538474E-15 1.1238231518249731E-15
lhumerus -47.38494252580132 -6.160892108569318 79.75812663942851
lradius 61.99170894340624
lwrist 10.831891782710764
lhand -14.575603237825545 -19.84943611486232
lfingers 7.125019999999866
lthumb 11.509837660790614 9.88459687074278
rfemur -0.39269545858836796 8.831899499303656 35.575202749771535
rtibia 27.314092878907942
rfoot -21.35188344021922 -7.939090695021584
rtoes 5.200596414172707
lfemur -26.838014177762588 1.6175621847847972 -16.518858009686593
ltibia 47.068234115581305
lfoot -3.179419072788038 -4.2845440214273625
ltoes 7.859896111546085
